<svg width="247" height="75" viewBox="0 0 247 75" fill="none" xmlns="http://www.w3.org/2000/svg">
<path d="M88.7632 20.9705C89.4728 20.9705 90.0425 20.5669 90.4722 19.7596C90.9084 18.9458 91.1265 17.8488 91.1265 16.4686C91.1265 15.0818 90.9116 13.9881 90.4819 13.1873C90.0588 12.3865 89.4858 11.9861 88.7632 11.9861C88.047 11.9861 87.4741 12.3865 87.0444 13.1873C86.6213 13.9816 86.4097 15.0753 86.4097 16.4686C86.4097 17.8553 86.6245 18.9523 87.0542 19.7596C87.4839 20.5669 88.0535 20.9705 88.7632 20.9705ZM92.9233 16.5076C92.9233 18.285 92.5295 19.7335 91.7417 20.8533C90.9604 21.9666 89.9676 22.5233 88.7632 22.5233C87.5653 22.5233 86.5724 21.9634 85.7847 20.8436C84.9969 19.7238 84.603 18.2785 84.603 16.5076C84.603 14.7303 84.9969 13.285 85.7847 12.1717C86.5724 11.0519 87.5653 10.492 88.7632 10.492C89.9676 10.492 90.9604 11.0519 91.7417 12.1717C92.5295 13.285 92.9233 14.7303 92.9233 16.5076ZM99.6476 12.2693V15.9705H100.927C101.741 15.9705 102.349 15.824 102.753 15.5311C103.163 15.2316 103.368 14.7824 103.368 14.1834C103.368 13.5128 103.173 13.0278 102.782 12.7283C102.392 12.4223 101.76 12.2693 100.888 12.2693H99.6476ZM97.9874 10.785H101.112C102.473 10.785 103.489 11.0617 104.159 11.6151C104.83 12.1619 105.165 12.992 105.165 14.1053C105.165 14.9516 104.96 15.6385 104.55 16.1658C104.146 16.6867 103.554 17.035 102.773 17.2108L105.771 22.3475H103.769L101.064 17.4842H99.6476V22.3475H97.9874V10.785ZM114.126 12.1229L112.807 17.4256H115.454L114.126 12.1229ZM113.032 10.6092H115.366L118.452 22.3475H116.645L115.825 18.9686H112.426L111.587 22.3475H109.966L113.032 10.6092ZM123.711 10.6873H125.371V20.7068H131.25V22.2498H123.711V10.6873ZM142.072 10.785H148.996V12.2303H143.732V15.4627H148.361V16.9861H143.732V20.7068H149.171V22.2498H142.072V10.785ZM154.157 15.0233H162.077V17.0057H154.157V15.0233ZM167.161 10.6873H168.821V15.5701H172.835V10.6873H174.495V22.3475H172.835V17.0838H168.821V22.3475H167.161V10.6873ZM180.174 10.785H187.098V12.2303H181.834V15.4627H186.463V16.9861H181.834V20.7068H187.274V22.2498H180.174V10.785ZM196.176 12.1229L194.857 17.4256H197.504L196.176 12.1229ZM195.082 10.6092H197.416L200.502 22.3475H198.695L197.875 18.9686H194.476L193.637 22.3475H192.016L195.082 10.6092ZM205.761 10.6873H207.421V20.7068H213.3V22.2498H205.761V10.6873ZM220.796 12.3084H217.72V10.785H225.542V12.3084H222.456V22.3475H220.796V12.3084ZM230.665 10.6873H232.325V15.5701H236.339V10.6873H237.999V22.3475H236.339V17.0838H232.325V22.3475H230.665V10.6873ZM84.6714 30.6873H87.3667L88.7827 35.824L90.2085 30.6873H92.9038V42.3475H91.2437V32.3475L89.4272 38.5486H88.0698L86.2437 32.3084V42.3475H84.6714V30.6873ZM101.464 40.9705C102.174 40.9705 102.743 40.5669 103.173 39.7596C103.609 38.9458 103.827 37.8488 103.827 36.4686C103.827 35.0818 103.612 33.9881 103.183 33.1873C102.76 32.3865 102.187 31.9861 101.464 31.9861C100.748 31.9861 100.175 32.3865 99.7452 33.1873C99.322 33.9816 99.1104 35.0753 99.1104 36.4686C99.1104 37.8553 99.3253 38.9523 99.755 39.7596C100.185 40.5669 100.754 40.9705 101.464 40.9705ZM105.624 36.5076C105.624 38.285 105.23 39.7335 104.442 40.8533C103.661 41.9666 102.668 42.5233 101.464 42.5233C100.266 42.5233 99.2732 41.9634 98.4854 40.8436C97.6977 39.7238 97.3038 38.2785 97.3038 36.5076C97.3038 34.7303 97.6977 33.285 98.4854 32.1717C99.2732 31.0519 100.266 30.492 101.464 30.492C102.668 30.492 103.661 31.0519 104.442 32.1717C105.23 33.285 105.624 34.7303 105.624 36.5076ZM110.307 30.6873H112.309L116.45 39.3885V30.6873H118.032V42.3475H116.108L111.889 33.5682V42.3475H110.307V30.6873ZM123.926 40.7068H126.026V32.2693H124.287V30.785H129.453V32.2693H127.705V40.7068H129.815V42.2498H123.926V40.7068ZM138.746 32.3084H135.67V30.785H143.492V32.3084H140.406V42.3475H138.746V32.3084ZM152.267 40.9705C152.977 40.9705 153.546 40.5669 153.976 39.7596C154.412 38.9458 154.63 37.8488 154.63 36.4686C154.63 35.0818 154.416 33.9881 153.986 33.1873C153.563 32.3865 152.99 31.9861 152.267 31.9861C151.551 31.9861 150.978 32.3865 150.548 33.1873C150.125 33.9816 149.914 35.0753 149.914 36.4686C149.914 37.8553 150.128 38.9523 150.558 39.7596C150.988 40.5669 151.557 40.9705 152.267 40.9705ZM156.427 36.5076C156.427 38.285 156.033 39.7335 155.246 40.8533C154.464 41.9666 153.472 42.5233 152.267 42.5233C151.069 42.5233 150.076 41.9634 149.289 40.8436C148.501 39.7238 148.107 38.2785 148.107 36.5076C148.107 34.7303 148.501 33.285 149.289 32.1717C150.076 31.0519 151.069 30.492 152.267 30.492C153.472 30.492 154.464 31.0519 155.246 32.1717C156.033 33.285 156.427 34.7303 156.427 36.5076ZM163.151 32.2693V35.9705H164.431C165.245 35.9705 165.853 35.824 166.257 35.5311C166.667 35.2316 166.872 34.7824 166.872 34.1834C166.872 33.5128 166.677 33.0278 166.286 32.7283C165.896 32.4223 165.264 32.2693 164.392 32.2693H163.151ZM161.491 30.785H164.616C165.977 30.785 166.993 31.0617 167.663 31.6151C168.334 32.1619 168.669 32.992 168.669 34.1053C168.669 34.9516 168.464 35.6385 168.054 36.1658C167.65 36.6867 167.058 37.035 166.276 37.2108L169.275 42.3475H167.273L164.567 37.4842H163.151V42.3475H161.491V30.785ZM174.729 40.7068H176.829V32.2693H175.091V30.785H180.257V32.2693H178.508V40.7068H180.618V42.2498H174.729V40.7068ZM186.512 30.6873H188.514L192.655 39.3885V30.6873H194.237V42.3475H192.313L188.094 33.5682V42.3475H186.512V30.6873ZM202.797 36.1268H206.976V41.8494C206.247 42.0968 205.626 42.2726 205.111 42.3768C204.597 42.4874 204.118 42.5428 203.676 42.5428C202.224 42.5428 201.091 42.0122 200.277 40.951C199.463 39.8833 199.057 38.3891 199.057 36.4686C199.057 34.6131 199.473 33.1645 200.307 32.1229C201.14 31.0747 202.282 30.5506 203.734 30.5506C204.607 30.5506 205.329 30.7622 205.902 31.1854C206.475 31.602 206.833 32.1815 206.976 32.9236H205.238C205.069 32.6307 204.857 32.4061 204.603 32.2498C204.356 32.0871 204.079 32.0057 203.773 32.0057C202.81 32.0057 202.081 32.38 201.586 33.1287C201.098 33.8709 200.853 34.9777 200.853 36.449C200.853 37.9529 201.091 39.089 201.566 39.8572C202.048 40.6255 202.758 41.0096 203.695 41.0096C203.923 41.0096 204.17 40.9803 204.437 40.9217C204.704 40.8566 204.997 40.7589 205.316 40.6287V37.6502H202.797V36.1268ZM86.8101 52.2693V55.9901H88.6851C89.59 55.9901 90.2345 55.8468 90.6187 55.5604C91.0093 55.2739 91.2046 54.8019 91.2046 54.1443C91.2046 53.5193 91.006 53.0506 90.6089 52.7381C90.2183 52.4256 89.6323 52.2693 88.8511 52.2693H86.8101ZM85.1499 50.785H89.144C90.355 50.785 91.3022 51.0812 91.9858 51.6736C92.6694 52.2661 93.0112 53.0832 93.0112 54.1248C93.0112 55.16 92.6825 55.9803 92.0249 56.5858C91.3674 57.1847 90.4754 57.4842 89.3491 57.4842H86.8101V62.3475H85.1499V50.785ZM98.3097 50.6873H99.9698V60.7068H105.849V62.2498H98.3097V50.6873ZM114.126 52.1229L112.807 57.4256H115.454L114.126 52.1229ZM113.032 50.6092H115.366L118.452 62.3475H116.645L115.825 58.9686H112.426L111.587 62.3475H109.966L113.032 50.6092ZM126.045 52.3084H122.969V50.785H130.791V52.3084H127.705V62.3475H126.045V52.3084ZM137.047 50.785H143.072V52.2498H138.707V55.492H142.291V57.0057H138.707V62.3475H137.047V50.785ZM152.267 60.9705C152.977 60.9705 153.546 60.5669 153.976 59.7596C154.412 58.9458 154.63 57.8488 154.63 56.4686C154.63 55.0818 154.416 53.9881 153.986 53.1873C153.563 52.3865 152.99 51.9861 152.267 51.9861C151.551 51.9861 150.978 52.3865 150.548 53.1873C150.125 53.9816 149.914 55.0753 149.914 56.4686C149.914 57.8553 150.128 58.9523 150.558 59.7596C150.988 60.5669 151.557 60.9705 152.267 60.9705ZM156.427 56.5076C156.427 58.285 156.033 59.7335 155.246 60.8533C154.464 61.9666 153.472 62.5233 152.267 62.5233C151.069 62.5233 150.076 61.9634 149.289 60.8436C148.501 59.7238 148.107 58.2785 148.107 56.5076C148.107 54.7303 148.501 53.285 149.289 52.1717C150.076 51.0519 151.069 50.492 152.267 50.492C153.472 50.492 154.464 51.0519 155.246 52.1717C156.033 53.285 156.427 54.7303 156.427 56.5076ZM163.151 52.2693V55.9705H164.431C165.245 55.9705 165.853 55.824 166.257 55.5311C166.667 55.2316 166.872 54.7824 166.872 54.1834C166.872 53.5128 166.677 53.0278 166.286 52.7283C165.896 52.4223 165.264 52.2693 164.392 52.2693H163.151ZM161.491 50.785H164.616C165.977 50.785 166.993 51.0617 167.663 51.6151C168.334 52.1619 168.669 52.992 168.669 54.1053C168.669 54.9516 168.464 55.6385 168.054 56.1658C167.65 56.6867 167.058 57.035 166.276 57.2108L169.275 62.3475H167.273L164.567 57.4842H163.151V62.3475H161.491V50.785ZM173.577 50.6873H176.272L177.688 55.824L179.114 50.6873H181.809V62.3475H180.149V52.3475L178.333 58.5486H176.975L175.149 52.3084V62.3475H173.577V50.6873Z" fill="#111111"/>
<circle cx="37.0902" cy="37.3474" r="36.8573" fill="#111111"/>
<path d="M61.8005 29.116C61.8202 28.9991 61.84 28.8969 61.8597 28.78C61.8794 28.6923 61.8991 28.5901 61.8991 28.5024C61.9386 28.3125 61.9583 28.1079 61.9977 27.9034C61.9977 27.845 61.9977 27.7865 62.0175 27.7281C62.0372 27.582 62.0372 27.4213 62.0569 27.2752C62.0569 27.2021 62.0766 27.1437 62.0766 27.0706C62.0963 26.9099 62.0963 26.7638 62.1161 26.6177C62.1161 26.5593 62.1161 26.5009 62.1161 26.4424C62.1555 26.0187 62.1555 25.6097 62.1555 25.186V25.1129C62.1358 24.923 62.1358 24.7477 62.1161 24.5724V24.5139C62.1358 23.9734 62.1555 23.462 62.1555 22.9507C62.1555 18.407 58.5268 13.7319 50.8751 13.7319H50.8357C49.4947 13.5712 47.9959 13.6881 46.359 13.878C42.119 14.0387 37.6621 16.0695 37.0902 16.1425C36.5183 16.0695 32.0614 14.0387 27.8214 13.878C26.1845 13.6881 24.6857 13.5712 23.3447 13.7319H23.3053C15.6536 13.7319 12.0249 18.407 12.0249 22.9507C12.0249 23.462 12.0446 23.9734 12.0643 24.5139V24.5724C12.0446 24.7477 12.0446 24.923 12.0446 25.1129L12.0249 25.186C12.0249 25.6097 12.0249 26.0187 12.0643 26.4424C12.0643 26.5009 12.0643 26.5593 12.0643 26.6177C12.0841 26.7638 12.0841 26.9099 12.1038 27.0706C12.1038 27.1437 12.1235 27.2021 12.1235 27.2752C12.1432 27.4213 12.1629 27.582 12.1629 27.7281C12.1827 27.7865 12.1827 27.845 12.2024 27.9034C12.2221 28.1079 12.2418 28.3125 12.2813 28.5024C12.2813 28.5901 12.301 28.6923 12.3207 28.78C12.3404 28.8969 12.3602 28.9991 12.3799 29.116C12.3996 29.2329 12.4193 29.3498 12.439 29.4666C12.4588 29.5397 12.4785 29.6274 12.4982 29.715C12.4982 29.8027 12.5179 29.8757 12.5376 29.9634C14.2731 43.3606 20.2288 61.0384 26.6578 61.0384H26.6776H26.717H26.855H26.9339L27.0917 61.0238H27.1311H27.1509L27.3283 60.9946L27.3678 60.98C27.4467 60.9654 27.5058 60.9362 27.5847 60.9216L27.6044 60.9069L27.7819 60.8339L27.8608 60.7901L27.9989 60.7316L28.058 60.6732L28.1961 60.5855L28.2552 60.5417C28.3144 60.4979 28.3736 60.454 28.413 60.4102L28.4524 60.381C28.5116 60.3225 28.5708 60.2641 28.6299 60.2057L28.6891 60.1326C28.7285 60.0888 28.768 60.045 28.8074 59.9865L28.8271 59.9573L28.8469 59.9281C28.9652 59.7674 29.0835 59.5774 29.2018 59.3875C29.7146 58.4233 29.9118 57.3714 29.8132 56.3341C29.754 55.8373 29.7343 55.326 29.7343 54.8147C29.7343 49.0584 33.008 44.3833 37.0902 44.2079C41.1724 44.3833 44.4461 49.0584 44.4461 54.8147C44.4461 55.326 44.4264 55.8373 44.3672 56.3341C44.2686 57.3714 44.4658 58.4233 44.9786 59.3875C45.0969 59.5774 45.2152 59.7674 45.3335 59.9281L45.3533 59.9573L45.373 59.9865C45.4124 60.045 45.4519 60.0888 45.511 60.1326L45.5505 60.2057C45.6096 60.2641 45.6688 60.3225 45.728 60.381L45.7674 60.4102C45.8069 60.454 45.866 60.4979 45.9252 60.5417L45.9843 60.5855L46.1224 60.6732L46.2013 60.7316L46.3196 60.7901L46.3985 60.8339L46.576 60.9069L46.5957 60.9216C46.6746 60.9362 46.7337 60.9654 46.8126 60.98L46.8521 60.9946L47.0295 61.0238H47.069H47.0887L47.2465 61.0384H47.3254H47.4634H47.5028H47.5226C53.9516 61.0384 59.9073 43.3606 61.6428 29.9634C61.6625 29.8757 61.6822 29.8027 61.7019 29.715C61.7019 29.6274 61.7216 29.5397 61.7414 29.4666C61.7611 29.3498 61.7808 29.2329 61.8005 29.116Z" fill="white"/>
</svg>
